<?xml version="1.0" encoding="utf-8"?>
<svg xmlns="http://www.w3.org/2000/svg" width="72.0" height="71.96519470214844" viewBox="331.5269923409768 788.0 72.0 71.96519470214844" preserveAspectRatio="none">
  <g>
    <defs>
      <path id="s-Path_5-d1224" d="M367.50953124473796 859.9651939870279 C387.24079893684075 859.9651939870279 403.52699234097724 843.6790005828914 403.52699234097724 823.9825764912483 C403.52699234097724 804.2861148121183 387.20595533638095 788.0 367.4746876442781 788.0 C347.77830455716645 788.0 331.5269923409768 804.2861148121183 331.5269923409768 823.9825764912483 C331.5269923409768 843.6790005828914 347.81310715309496 859.9651939870279 367.50953124473796 859.9651939870279 Z M367.50953124473796 852.7963102755938 C351.536644921543 852.7963102755938 338.7652873270054 839.955584119515 338.7652873270054 823.9825764912483 C338.7652873270054 808.0096525805662 351.536644921543 795.2034522398299 367.4746876442781 795.2034522398299 C383.4476952725448 795.2034522398299 396.28881780575927 808.0096525805662 396.3237263300603 823.9825764912483 C396.3581017954546 839.955584119515 383.4825354559604 852.7963102755938 367.50953124473796 852.7963102755938 Z M354.66841042004563 827.2886761715554 L364.2034315644309 827.2886761715554 L364.2034315644309 836.8581462477869 C364.2034315644309 838.7721181716427 365.5607157204224 840.1294023276341 367.4398440438183 840.1294023276341 C369.38866298517814 840.1294023276341 370.78078732458516 838.7721181716427 370.78078732458516 836.8581462477869 L370.78078732458516 827.2886761715554 L380.35065036090816 827.2886761715554 C382.26462570180814 827.2886761715554 383.6563536640794 825.9313954326082 383.6563536640794 824.0174200917081 C383.6563536640794 822.1034481678523 382.299469302268 820.7113238284453 380.35065036090816 820.7113238284453 L370.78078732458516 820.7113238284453 L370.78078732458516 811.1414573750781 C370.78078732458516 809.1928383308083 369.38866298517814 807.8356361838793 367.4398440438183 807.8356361838793 C365.5607157204224 807.8356361838793 364.2034315644309 809.1928383308083 364.2034315644309 811.1414573750781 L364.2034315644309 820.7113238284453 L354.66841042004563 820.7113238284453 C352.685147672406 820.7113238284453 351.32786522493666 822.1034481678523 351.32786522493666 824.0174200917081 C351.32786522493666 825.9313954326082 352.7199895643437 827.2886761715554 354.66841042004563 827.2886761715554 Z "></path>
    </defs>
    <g style="mix-blend-mode:normal">
      <use xmlns:xlink="http://www.w3.org/1999/xlink" xlink:href="#s-Path_5-d1224" fill="#404040" fill-opacity="1.0"></use>
    </g>
  </g>
</svg>
