<?xml version="1.0" standalone="no"?>
<!DOCTYPE svg PUBLIC "-//W3C//DTD SVG 20010904//EN"
 "http://www.w3.org/TR/2001/REC-SVG-20010904/DTD/svg10.dtd">
<svg version="1.0" xmlns="http://www.w3.org/2000/svg"
width="512.000000pt" height="512.000000pt" viewBox="0 0 512.000000 512.000000"
preserveAspectRatio="xMidYMid meet">

  <g transform="translate(0.000000,512.000000) scale(0.100000,-0.100000)"
    fill="#8E8E93" stroke="none">
    <path d="M485 5095 c-14 -13 -25 -36 -25 -50 0 -14 11 -37 25 -50 22 -23 31
      -25 124 -25 l100 0 -125 -171 c-69 -94 -129 -181 -134 -195 -12 -30 2 -69 29
      -83 12 -7 103 -11 236 -11 l216 0 24 25 c14 13 25 31 25 39 0 24 -21 64 -39
      73 -9 4 -73 10 -143 13 l-127 5 129 175 c143 193 153 220 104 259 -25 20 -40
      21 -211 21 -182 0 -184 0 -208 -25z"/>
    <path d="M1043 4293 c-50 -10 -70 -86 -33 -123 17 -17 33 -20 100 -20 44 0 80
      -4 80 -9 0 -6 -38 -62 -85 -126 -97 -133 -106 -167 -58 -205 26 -20 36 -21
      200 -18 188 3 197 6 209 64 4 21 0 37 -14 54 -18 22 -30 26 -111 30 l-91 5 90
      124 c96 132 106 159 71 202 -19 23 -24 24 -178 26 -87 0 -168 -1 -180 -4z"/>
    <path d="M2370 4181 c-181 -39 -310 -109 -436 -235 -76 -77 -99 -107 -138
      -186 -61 -125 -86 -226 -93 -377 -6 -117 -7 -123 -27 -123 -12 0 -174 20 -361
      45 -187 25 -360 45 -385 45 -104 0 -210 -48 -278 -125 -101 -115 -93 -288 22
      -458 22 -34 227 -282 454 -550 l412 -488 0 -158 c0 -152 1 -158 23 -179 29
      -27 67 -28 98 -3 23 19 24 24 27 203 3 215 27 164 -195 427 l-153 180 193 220
      c105 121 198 220 206 220 29 2 227 -113 292 -169 36 -32 80 -65 97 -75 29 -18
      30 -20 34 -114 6 -126 32 -192 105 -271 37 -40 77 -70 121 -92 62 -31 73 -33
      172 -33 93 0 112 3 162 27 67 31 147 103 183 163 33 58 55 145 55 225 l0 65
      44 28 c24 15 72 53 107 85 61 55 241 163 270 161 17 -1 395 -431 390 -445 -1
      -5 -71 -90 -155 -189 -83 -99 -160 -191 -169 -205 -15 -22 -17 -58 -17 -327
      l0 -303 -1662 0 c-1310 0 -1668 -3 -1688 -13 -13 -7 -35 -28 -48 -47 -23 -34
      -23 -36 -20 -302 l3 -268 31 -31 c31 -31 82 -48 141 -49 l32 0 3 -211 c3 -208
      3 -211 27 -230 23 -19 74 -19 2306 -19 1256 0 2291 3 2300 6 38 15 45 55 45
      259 l0 195 33 0 c59 1 110 18 141 49 l31 31 3 262 c3 278 1 297 -45 340 l-25
      23 -726 5 -727 5 -3 277 -2 277 412 488 c227 268 432 516 454 550 84 125 112
      252 78 359 -25 80 -104 161 -189 194 -99 37 -157 35 -546 -17 l-356 -49 -6
      126 c-7 155 -32 256 -93 378 -51 101 -139 206 -232 274 -72 53 -200 113 -297
      139 -115 31 -320 35 -435 10z m327 -141 c283 -46 497 -235 558 -495 8 -33 15
      -73 15 -89 l0 -29 -82 7 c-288 25 -593 132 -784 275 -76 56 -234 213 -234 231
      0 8 71 44 135 67 111 41 265 53 392 33z m-505 -351 l59 -56 -55 -50 c-86 -79
      -184 -127 -298 -147 -37 -7 -38 -6 -38 25 0 89 60 236 137 334 l46 58 45 -54
      c25 -30 72 -79 104 -110z m322 -219 c217 -106 399 -158 644 -182 l122 -12 -5
      -61 c-30 -296 -131 -516 -302 -657 -217 -179 -519 -196 -753 -43 -209 137
      -330 370 -365 701 l-7 62 54 7 c146 20 287 87 391 186 40 38 74 68 76 69 2 0
      67 -31 145 -70z m-1206 -315 c191 -25 361 -47 378 -50 29 -5 31 -8 48 -87 10
      -45 30 -117 46 -160 15 -43 25 -77 21 -76 -4 2 -61 31 -128 66 -67 34 -131 62
      -143 62 -28 0 -70 -43 -70 -72 0 -36 26 -66 81 -93 27 -14 49 -28 49 -31 0
      -10 -343 -395 -350 -392 -15 6 -415 486 -451 541 -44 67 -65 147 -54 203 13
      72 97 130 193 133 18 1 189 -19 380 -44z m2947 34 c81 -22 135 -86 135 -159 0
      -46 -35 -135 -74 -190 -41 -56 -425 -514 -436 -518 -7 -3 -350 382 -350 392 0
      3 22 17 49 31 82 41 103 94 56 140 -13 14 -34 25 -47 25 -13 -1 -75 -27 -138
      -60 -63 -32 -116 -58 -117 -56 -1 1 8 34 22 73 13 39 31 107 41 151 l17 81 41
      6 c203 31 680 93 716 94 25 0 63 -4 85 -10z m-1830 -916 c92 -18 248 -13 334
      10 l54 15 -6 -48 c-15 -128 -119 -220 -247 -220 -129 0 -232 92 -247 222 -6
      48 -5 51 13 44 10 -4 55 -15 99 -23z m2535 -1458 l0 -205 -1129 0 -1130 0 -15
      -22 c-23 -32 -20 -81 5 -104 20 -18 54 -19 1040 -22 l1019 -2 0 -155 0 -155
      -2190 0 -2190 0 0 155 0 155 1014 0 c714 0 1022 3 1045 11 53 19 69 81 31 119
      -20 20 -33 20 -1160 20 l-1140 0 0 205 0 205 2400 0 2400 0 0 -205z"/>
    <path d="M2112 3147 c-68 -72 24 -157 153 -144 103 11 153 63 121 126 -20 38
      -55 48 -107 31 -32 -11 -47 -11 -73 -2 -48 17 -70 15 -94 -11z"/>
    <path d="M2762 3164 c-7 -3 -19 -19 -28 -36 -13 -25 -13 -35 -3 -59 31 -76
      204 -92 277 -26 52 48 6 137 -63 122 -39 -9 -91 -10 -135 -2 -19 4 -41 4 -48
      1z"/>
    <path d="M2385 2805 c-44 -43 -29 -92 38 -127 35 -19 58 -23 137 -23 80 0 102
      4 138 23 23 13 48 34 54 48 15 33 0 74 -34 93 -24 14 -32 14 -75 -2 -59 -21
      -112 -22 -160 -2 -49 21 -70 19 -98 -10z"/>
  </g>
</svg>
