<?xml version="1.0" encoding="UTF-8"?>
<svg xmlns="http://www.w3.org/2000/svg" width="46.1845817565918" height="46.16225814819336" viewBox="299.0 65.87836158470814 46.1845817565918 46.16225814819336" preserveAspectRatio="none">
  <g>
    <defs>
      <path id="s-Path_53-d1224" d="M322.0810909333981 112.04061853690409 C334.7377596797503 112.04061853690409 345.18458032608055 101.5937978905739 345.18458032608055 88.95947552814803 C345.18458032608055 76.32513136673501 334.71540845160473 65.87836158470814 322.05873970525255 65.87836158470814 C309.4244439860331 65.87836158470814 299.0 76.32513136673501 299.0 88.95947552814803 C299.0 101.5937978905739 309.4467685709721 112.04061853690409 322.0810909333981 112.04061853690409 Z M322.0810909333981 96.6829026912391 C315.78627976927584 96.6829026912391 310.89771157698965 98.93745566966169 308.53156473918807 101.52674905035666 C305.4957566496704 98.24536689334515 303.6430231901084 93.82566827119176 303.6430231901084 88.95947552814803 C303.6430231901084 78.71360278947563 311.83524241582245 70.499033546671 322.05873970525255 70.499033546671 C332.3046633082284 70.499033546671 340.5416334324271 78.71360278947563 340.56398466057266 88.95947552814803 C340.56398466057266 93.82566827119176 338.711225768859 98.24536689334515 335.65308946123776 101.54909543428283 C333.2867900305262 98.93745566966169 328.39825090355623 96.6829026912391 322.0810909333981 96.6829026912391 Z M322.0810909333981 93.0220849419932 C326.4116438087054 93.06678497617459 329.7821668683437 89.3612671927473 329.7821668683437 84.58422019654974 C329.7821668683437 80.07512150603358 326.38929500266954 76.30280678179598 322.0810909333981 76.30280678179598 C317.7952356701626 76.30280678179598 314.38001015423316 80.07512150603358 314.4023613823787 84.58422019654974 C314.42471018841456 89.3612671927473 317.772884442017 92.99973613595733 322.0810909333981 93.0220849419932 Z "></path>
    </defs>
    <g style="mix-blend-mode:normal">
      <use xmlns:xlink="http://www.w3.org/1999/xlink" xlink:href="#s-Path_53-d1224" fill="#404040" fill-opacity="1.0"></use>
    </g>
  </g>
</svg>