<?xml version="1.0" standalone="no"?>
<!DOCTYPE svg PUBLIC "-//W3C//DTD SVG 20010904//EN" "http://www.w3.org/TR/2001/REC-SVG-20010904/DTD/svg10.dtd">
<svg version="1.0" xmlns="http://www.w3.org/2000/svg" width="456" height="456" viewBox="0 0 512.000000 512.000000" preserveAspectRatio="xMidYMid meet">
  <g transform="translate(0.000000,512.000000) scale(0.100000,-0.100000)" fill="#000000" stroke="none">
    <path d="M645 4595 c-51 -18 -110 -81 -124 -131 -16 -57 -15 -3768 0 -3815 18
      -53 58 -99 103 -120 39 -18 96 -19 1464 -19 1379 0 1424 1 1460 19 47 24 77
      56 97 103 13 32 15 108 15 535 l0 498 464 465 c395 396 466 471 475 505 24 87
      5 139 -78 228 -94 99 -160 127 -249 105 -43 -10 -71 -35 -329 -291 l-283 -281
      -2 1040 -3 1039 -23 38 c-13 20 -45 50 -70 65 l-47 27 -1415 2 c-1202 2 -1421
      0 -1455 -12z m2865 -145 c20 -20 20 -33 20 -1103 l0 -1084 -345 -342 c-190
      -189 -347 -353 -350 -364 -3 -12 -23 -99 -45 -194 -62 -267 -67 -263 285 -181
      l130 30 157 156 158 156 0 -401 c0 -221 3 -408 6 -416 3 -9 -4 -25 -15 -36
      l-21 -21 -1402 0 c-1290 0 -1403 1 -1420 17 -17 15 -18 87 -18 1891 0 1731 1
      1877 17 1894 15 17 73 18 1420 18 1390 0 1403 0 1423 -20z m904 -1670 c76 -80
      75 -96 -9 -180 l-65 -64 -85 84 c-47 47 -85 89 -85 95 0 16 102 113 130 123
      37 14 54 5 114 -58z m-251 -248 l87 -87 -558 -557 -557 -558 -110 -24 c-60
      -14 -111 -24 -113 -22 -1 2 9 55 23 117 l25 114 553 553 c303 303 554 552 557
      552 3 0 45 -39 93 -88z"/>
    <path d="M1405 3821 c-16 -10 -86 -75 -155 -145 l-124 -125 -67 64 c-76 74
      -105 81 -138 39 -12 -15 -21 -33 -21 -42 0 -8 46 -61 102 -118 76 -78 108
      -104 127 -104 20 0 67 41 203 178 194 193 204 210 152 251 -33 26 -41 26 -79
      2z"/>
    <path d="M1733 3670 c-47 -19 -56 -78 -17 -109 26 -21 33 -21 764 -21 731 0
      738 0 764 21 35 28 35 70 0 98 -26 21 -33 21 -758 20 -402 0 -741 -4 -753 -9z"/>
    <path d="M1266 2990 l-142 -140 -60 61 c-66 67 -93 79 -128 55 -58 -38 -42
      -77 77 -193 67 -66 91 -83 114 -83 24 0 57 29 206 178 109 110 177 186 177
      198 0 37 -28 64 -67 64 -32 0 -48 -13 -177 -140z"/>
    <path d="M1712 2957 c-27 -28 -28 -68 -4 -90 17 -16 85 -17 775 -17 l756 0 15
      22 c22 31 20 64 -4 88 -20 20 -33 20 -768 20 l-749 0 -21 -23z"/>
    <path d="M1415 2430 c-11 -4 -80 -70 -153 -145 l-133 -137 -62 59 c-34 33 -72
      63 -84 67 -43 14 -90 -33 -79 -78 3 -12 48 -63 99 -114 76 -74 100 -92 124
      -92 24 0 57 28 206 178 115 116 177 185 177 199 0 44 -54 80 -95 63z"/>
    <path d="M1716 2259 c-31 -24 -35 -68 -8 -92 17 -16 85 -17 774 -17 719 0 756
      1 771 18 25 28 21 67 -9 91 -26 21 -33 21 -764 21 -731 0 -738 0 -764 -21z"/>
    <path d="M1268 1588 l-137 -143 -58 56 c-32 31 -68 62 -80 68 -40 20 -93 -16
      -93 -65 0 -9 44 -61 97 -115 81 -83 102 -99 128 -99 27 0 54 24 208 178 109
      110 177 186 177 198 0 37 -28 64 -68 64 -35 0 -46 -9 -174 -142z"/>
    <path d="M1716 1559 c-31 -24 -34 -57 -7 -90 l19 -24 454 -3 c449 -3 455 -2
      481 18 36 29 36 71 1 99 -26 21 -37 21 -474 21 -437 0 -448 0 -474 -21z"/>
  </g>
</svg>