<?xml version="1.0" encoding="utf-8"?>
<svg xmlns="http://www.w3.org/2000/svg" width="53.0" height="29.815902709960938" viewBox="297.4999999999993 327.8029538285227 53.0 29.815902709960938" preserveAspectRatio="none">
  <g>
    <defs>
      <path id="s-Path_6-d1224" d="M298.9999999999993 342.71955904513266 C298.9999999999993 343.23829758414826 299.34337510877464 343.75703799919154 299.9508489814139 344.13729005056445 L317.38332343943307 355.53106466429836 C318.01742529083566 355.9288238060231 318.70411818844497 356.11885415429765 319.4701476169041 356.11885415429765 C321.13413405087897 356.11885415429765 322.34914198209594 355.3408429612 322.34914198209594 354.28624900657536 C322.34914198209594 353.73288837664217 322.0320939223917 353.2660801599614 321.47733146783605 352.9204520755338 L315.53451745250277 348.97826880480375 L307.8747619753603 344.3965608286188 L314.0289031505354 344.6387184821351 L346.04166050596643 344.6387184821351 C347.78498920278525 344.6387184821351 348.9999999999993 343.8433953055648 348.9999999999993 342.71955904513266 C348.9999999999993 341.57841080122785 347.78498920278525 340.7830895006852 346.04166050596643 340.7830895006852 L314.0289031505354 340.7830895006852 L307.9011778703405 341.0252452781738 L315.53451745250277 336.4435391780166 L321.47733146783605 332.50149285730754 C322.0320939223917 332.1557053105267 322.34914198209594 331.68889896987366 322.34914198209594 331.13563683139387 C322.34914198209594 330.0809640836065 321.13413405087897 329.3029538285227 319.4701476169041 329.3029538285227 C318.70411818844497 329.3029538285227 317.99098073588476 329.49313801106734 317.30428783827546 329.92536259539804 L299.9508489814139 341.2845179322559 C299.34337510877464 341.66496509050796 298.9999999999993 342.1835085226444 298.9999999999993 342.71955904513266 Z "></path>
    </defs>
    <g style="mix-blend-mode:normal">
      <use xmlns:xlink="http://www.w3.org/1999/xlink" xlink:href="#s-Path_6-d1224" fill="#666666" fill-opacity="1.0" stroke-width="2.0" stroke="#666666" stroke-linecap="butt"></use>
    </g>
  </g>
</svg>
