<?xml version="1.0" encoding="utf-8"?>
<svg xmlns="http://www.w3.org/2000/svg" width="69.10961151123047" height="63.441017150878906" viewBox="281.10543012618905 319.47296380039114 69.10961151123047 63.441017150878906" preserveAspectRatio="none">
  <g>
    <defs>
      <path id="s-Path_13-d1224" d="M292.2729549719678 382.9139811072027 L339.01356931913233 382.9139811072027 C346.3792585877224 382.9139811072027 350.2150415918047 379.11218604446503 350.2150415918047 371.8480701879257 L350.2150415918047 330.53864452392315 C350.2150415918047 323.2746815173585 346.3792585877224 319.47296380039114 339.01356931913233 319.47296380039114 L292.2729549719678 319.47296380039114 C284.94109527004997 319.47296380039114 281.10543012618905 323.2407340904649 281.10543012618905 330.53864452392315 L281.10543012618905 371.8480701879257 C281.10543012618905 379.11218604446503 284.94109527004997 382.9139811072027 292.2729549719678 382.9139811072027 Z M292.23900754507423 376.1588814480756 C289.4216455062338 376.1588814480756 287.86026091668606 374.6994183265449 287.86026091668606 371.7125088345303 L287.86026091668606 340.4840251702134 C287.86026091668606 337.49712304446257 289.4216455062338 336.0375015482594 292.23900754507423 336.0375015482594 L339.04755726047705 336.0375015482594 C341.8649174577515 336.0375015482594 343.4263444033163 337.49712304446257 343.4263444033163 340.4840251702134 L343.4263444033163 371.7125088345303 C343.4263444033163 374.6994183265449 341.8649174577515 376.1588814480756 339.04755726047705 376.1588814480756 L292.23900754507423 376.1588814480756 Z M309.10899478921453 347.7481447098846 L311.1118487783536 347.7481447098846 C312.3337977718505 347.7481447098846 312.7408575114925 347.3746861827359 312.7408575114925 346.18672144745176 L312.7408575114925 344.1838637751807 C312.7408575114925 342.96191478168384 312.3337977718505 342.5888393002546 311.1118487783536 342.5888393002546 L309.10899478921453 342.5888393002546 C307.8870421125857 342.5888393002546 307.4795956440923 342.96191478168384 307.4795956440923 344.1838637751807 L307.4795956440923 346.18672144745176 C307.4795956440923 347.3746861827359 307.8870421125857 347.7481447098846 309.10899478921453 347.7481447098846 Z M320.20850692098475 347.7481447098846 L322.2113609101238 347.7481447098846 C323.39932932853986 347.7481447098846 323.8067721139014 347.3746861827359 323.8067721139014 346.18672144745176 L323.8067721139014 344.1838637751807 C323.8067721139014 342.96191478168384 323.39932932853986 342.5888393002546 322.2113609101238 342.5888393002546 L320.20850692098475 342.5888393002546 C318.9865579274878 342.5888393002546 318.57949818784584 342.96191478168384 318.57949818784584 344.1838637751807 L318.57949818784584 346.18672144745176 C318.57949818784584 347.3746861827359 318.9865579274878 347.7481447098846 320.20850692098475 347.7481447098846 Z M331.27441784026166 347.7481447098846 L333.27689246681314 347.7481447098846 C334.4988377771781 347.7481447098846 334.90628792880347 347.3746861827359 334.90628792880347 346.18672144745176 L334.90628792880347 344.1838637751807 C334.90628792880347 342.96191478168384 334.4988377771781 342.5888393002546 333.27689246681314 342.5888393002546 L331.27441784026166 342.5888393002546 C330.0864531049775 342.5888393002546 329.67901031961605 342.96191478168384 329.67901031961605 344.1838637751807 L329.67901031961605 346.18672144745176 C329.67901031961605 347.3746861827359 330.0864531049775 347.7481447098846 331.27441784026166 347.7481447098846 Z M298.0433895698868 358.6781149131785 L300.01210460927257 358.6781149131785 C301.2338989112289 358.6781149131785 301.64134537972234 358.30465270289784 301.64134537972234 357.08270370940096 L301.64134537972234 355.07984972026185 C301.64134537972234 353.8918849849777 301.2338989112289 353.51842277469706 300.01210460927257 353.51842277469706 L298.0433895698868 353.51842277469706 C296.8214000619388 353.51842277469706 296.41406777053487 353.8918849849777 296.41406777053487 355.07984972026185 L296.41406777053487 357.08270370940096 C296.41406777053487 358.30465270289784 296.8214000619388 358.6781149131785 298.0433895698868 358.6781149131785 Z M309.10899478921453 358.6781149131785 L311.1118487783536 358.6781149131785 C312.3337977718505 358.6781149131785 312.7408575114925 358.30465270289784 312.7408575114925 357.08270370940096 L312.7408575114925 355.07984972026185 C312.7408575114925 353.8918849849777 312.3337977718505 353.51842277469706 311.1118487783536 353.51842277469706 L309.10899478921453 353.51842277469706 C307.8870421125857 353.51842277469706 307.4795956440923 353.8918849849777 307.4795956440923 355.07984972026185 L307.4795956440923 357.08270370940096 C307.4795956440923 358.30465270289784 307.8870421125857 358.6781149131785 309.10899478921453 358.6781149131785 Z M320.20850692098475 358.6781149131785 L322.2113609101238 358.6781149131785 C323.39932932853986 358.6781149131785 323.8067721139014 358.30465270289784 323.8067721139014 357.08270370940096 L323.8067721139014 355.07984972026185 C323.8067721139014 353.8918849849777 323.39932932853986 353.51842277469706 322.2113609101238 353.51842277469706 L320.20850692098475 353.51842277469706 C318.9865579274878 353.51842277469706 318.57949818784584 353.8918849849777 318.57949818784584 355.07984972026185 L318.57949818784584 357.08270370940096 C318.57949818784584 358.30465270289784 318.9865579274878 358.6781149131785 320.20850692098475 358.6781149131785 Z M331.27441784026166 358.6781149131785 L333.27689246681314 358.6781149131785 C334.4988377771781 358.6781149131785 334.90628792880347 358.30465270289784 334.90628792880347 357.08270370940096 L334.90628792880347 355.07984972026185 C334.90628792880347 353.8918849849777 334.4988377771781 353.51842277469706 333.27689246681314 353.51842277469706 L331.27441784026166 353.51842277469706 C330.0864531049775 353.51842277469706 329.67901031961605 353.8918849849777 329.67901031961605 355.07984972026185 L329.67901031961605 357.08270370940096 C329.67901031961605 358.30465270289784 330.0864531049775 358.6781149131785 331.27441784026166 358.6781149131785 Z M298.0433895698868 369.5740971751277 L300.01210460927257 369.5740971751277 C301.2338989112289 369.5740971751277 301.64134537972234 369.2006349648471 301.64134537972234 368.01267022956296 L301.64134537972234 366.00981992355577 C301.64134537972234 364.7878672469269 301.2338989112289 364.4144050366463 300.01210460927257 364.4144050366463 L298.0433895698868 364.4144050366463 C296.8214000619388 364.4144050366463 296.41406777053487 364.7878672469269 296.41406777053487 366.00981992355577 L296.41406777053487 368.01267022956296 C296.41406777053487 369.2006349648471 296.8214000619388 369.5740971751277 298.0433895698868 369.5740971751277 Z M309.10899478921453 369.5740971751277 L311.1118487783536 369.5740971751277 C312.3337977718505 369.5740971751277 312.7408575114925 369.2006349648471 312.7408575114925 368.01267022956296 L312.7408575114925 366.00981992355577 C312.7408575114925 364.7878672469269 312.3337977718505 364.4144050366463 311.1118487783536 364.4144050366463 L309.10899478921453 364.4144050366463 C307.8870421125857 364.4144050366463 307.4795956440923 364.7878672469269 307.4795956440923 366.00981992355577 L307.4795956440923 368.01267022956296 C307.4795956440923 369.2006349648471 307.8870421125857 369.5740971751277 309.10899478921453 369.5740971751277 Z M320.20850692098475 369.5740971751277 L322.2113609101238 369.5740971751277 C323.39932932853986 369.5740971751277 323.8067721139014 369.2006349648471 323.8067721139014 368.01267022956296 L323.8067721139014 366.00981992355577 C323.8067721139014 364.7878672469269 323.39932932853986 364.4144050366463 322.2113609101238 364.4144050366463 L320.20850692098475 364.4144050366463 C318.9865579274878 364.4144050366463 318.57949818784584 364.7878672469269 318.57949818784584 366.00981992355577 L318.57949818784584 368.01267022956296 C318.57949818784584 369.2006349648471 318.9865579274878 369.5740971751277 320.20850692098475 369.5740971751277 Z "></path>
    </defs>
    <g style="mix-blend-mode:normal">
      <use xmlns:xlink="http://www.w3.org/1999/xlink" xlink:href="#s-Path_13-d1224" fill="#8E8E93" fill-opacity="1.0"></use>
    </g>
  </g>
</svg>
