<?xml version="1.0" encoding="utf-8"?>
<svg xmlns="http://www.w3.org/2000/svg" width="41.52699279785156" height="41.918983459472656" viewBox="362.00000000000006 67.99999999999989 41.52699279785156 41.918983459472656" preserveAspectRatio="none">
  <g>
    <defs>
      <path id="s-Path_128-d1224" d="M379.1376948530121 102.27548776440372 C382.6001834840024 102.27548776440372 385.84488799879233 101.23017598939691 388.5450093547504 99.44454944186948 L398.08289508640337 109.0042395765203 C398.714443032007 109.61398311912623 399.5201710135207 109.91898012161244 400.39130275261743 109.91898012161244 C402.1984879664811 109.91898012161244 403.5269923409764 108.50350859749281 403.5269923409764 106.71788204996537 C403.5269923409764 105.89035439115901 403.2437997414879 105.0846264096453 402.634056198882 104.47488286703937 L393.161578950517 94.95879681267891 C395.1213855339545 92.17146493328755 396.2754641358783 88.79618918858293 396.2754641358783 85.1377208443898 C396.2754641358783 75.70872480798438 388.5668137577481 67.99999999999989 379.1376948530121 67.99999999999989 C369.7305032196045 67.99999999999989 362.00000000000006 75.70872480798438 362.00000000000006 85.1377208443898 C362.00000000000006 94.56683738627342 369.7087248079844 102.27548776440372 379.1376948530121 102.27548776440372 Z M379.1376948530121 97.70252697463242 C372.2347441021654 97.70252697463242 366.5729867811489 92.0406456038589 366.5729867811489 85.1377208443898 C366.5729867811489 78.23474410216538 372.2347441021654 72.57296197119744 379.1376948530121 72.57296197119744 C386.0408700748476 72.57296197119744 391.70250334610705 78.23474410216538 391.70250334610705 85.1377208443898 C391.70250334610705 92.0406456038589 386.0408700748476 97.70252697463242 379.1376948530121 97.70252697463242 Z "></path>
    </defs>
    <g style="mix-blend-mode:normal">
      <use xmlns:xlink="http://www.w3.org/1999/xlink" xlink:href="#s-Path_128-d1224" fill="#666666" fill-opacity="1.0"></use>
    </g>
  </g>
</svg>

